<svg width="71" height="71" viewBox="0 0 71 71" fill="none" xmlns="http://www.w3.org/2000/svg">
<path opacity="0.2" d="M35.0792 8.77002C30.4587 8.76944 25.9196 9.98567 21.9185 12.2963C17.9174 14.607 14.5953 17.9307 12.2866 21.9329C9.97778 25.9351 8.76371 30.4748 8.76648 35.0952C8.76926 39.7156 9.98878 44.2538 12.3024 48.2533L8.88488 58.5002C8.75605 58.8865 8.73735 59.3011 8.83088 59.6974C8.92442 60.0937 9.12648 60.4562 9.41442 60.7441C9.70237 61.0321 10.0648 61.2341 10.4611 61.3277C10.8575 61.4212 11.272 61.4025 11.6583 61.2737L21.9053 57.8562C25.3993 59.8762 29.3113 61.0654 33.3384 61.3315C37.3656 61.5977 41.4 60.9338 45.1295 59.3911C48.859 57.8485 52.1836 55.4685 54.8461 52.4353C57.5085 49.4021 59.4375 45.7971 60.4836 41.899C61.5298 38.001 61.6651 33.9146 60.8792 29.9559C60.0932 25.9972 58.407 22.2724 55.9511 19.0697C53.4951 15.867 50.3353 13.2723 46.716 11.4863C43.0968 9.70029 39.1151 8.77089 35.0792 8.77002ZM41.6565 50.4265C35.8418 50.4265 30.2652 48.1166 26.1535 44.005C22.0419 39.8934 19.732 34.3168 19.732 28.5021C19.732 26.1762 20.656 23.9455 22.3006 22.3009C23.9453 20.6562 26.1759 19.7323 28.5018 19.7323L32.8867 28.5021L29.5103 33.5639C30.8497 36.7641 33.3944 39.3089 36.5947 40.6482L41.6565 37.2719L50.4263 41.6567C50.4263 43.9826 49.5023 46.2133 47.8577 47.8579C46.213 49.5026 43.9824 50.4265 41.6565 50.4265Z" fill="#05482C"/>
<path d="M51.4074 39.6941L42.6376 35.3092C42.2924 35.1372 41.9079 35.0592 41.523 35.0833C41.1381 35.1074 40.7663 35.2325 40.4452 35.4462L36.4193 38.132C34.5712 37.116 33.0504 35.5952 32.0344 33.7471L34.7201 29.7212C34.9338 29.4001 35.059 29.0283 35.0831 28.6434C35.1071 28.2584 35.0292 27.8739 34.8572 27.5287L30.4723 18.7589C30.2905 18.3919 30.0096 18.0831 29.6613 17.8676C29.3131 17.652 28.9114 17.5383 28.5018 17.5394C25.5944 17.5394 22.8062 18.6943 20.7503 20.7502C18.6945 22.806 17.5396 25.5943 17.5396 28.5016C17.5468 34.8956 20.09 41.0256 24.6113 45.5469C29.1325 50.0681 35.2625 52.6113 41.6565 52.6186C43.0961 52.6186 44.5216 52.335 45.8516 51.7841C47.1816 51.2332 48.39 50.4257 49.408 49.4078C50.4259 48.3899 51.2334 47.1814 51.7843 45.8514C52.3352 44.5214 52.6187 43.0959 52.6187 41.6563C52.619 41.249 52.5059 40.8497 52.2919 40.5031C52.0779 40.1565 51.7717 39.8764 51.4074 39.6941ZM41.6565 48.2337C36.425 48.2279 31.4095 46.1471 27.7103 42.4479C24.011 38.7487 21.9303 33.7331 21.9245 28.5016C21.924 26.981 22.4506 25.5071 23.4144 24.3309C24.3783 23.1547 25.7199 22.3488 27.211 22.0504L30.3572 28.3536L27.6796 32.3384C27.4796 32.6386 27.3566 32.9834 27.3217 33.3424C27.2868 33.7015 27.341 34.0635 27.4796 34.3966C29.0482 38.1248 32.0142 41.0907 35.7424 42.6594C36.0764 42.8041 36.4413 42.8633 36.8039 42.8317C37.1666 42.8001 37.5157 42.6787 37.8197 42.4785L41.8264 39.8092L48.1297 42.9554C47.8289 44.4487 47.019 45.7912 45.8385 46.7539C44.6579 47.7165 43.1798 48.2396 41.6565 48.2337ZM35.0792 6.57715C30.1584 6.57608 25.3212 7.84901 21.0383 10.2721C16.7555 12.6951 13.1729 16.1857 10.6393 20.4041C8.10573 24.6225 6.70745 29.425 6.58058 34.3441C6.45371 39.2633 7.60257 44.1314 9.91533 48.4748L6.80479 57.8064C6.54714 58.5791 6.50975 59.4081 6.69681 60.2008C6.88387 60.9935 7.288 61.7184 7.86389 62.2943C8.43978 62.8701 9.16468 63.2743 9.95733 63.4613C10.75 63.6484 11.5791 63.611 12.3517 63.3533L21.6833 60.2428C25.5057 62.2759 29.7411 63.4115 34.068 63.5633C38.3948 63.7151 42.6994 62.8792 46.6549 61.119C50.6105 59.3589 54.113 56.7207 56.8968 53.4048C59.6805 50.0889 61.6723 46.1823 62.7208 41.9817C63.7693 37.7811 63.8471 33.3968 62.9483 29.1617C62.0494 24.9265 60.1975 20.9518 57.5332 17.5392C54.8689 14.1266 51.4621 11.3658 47.5715 9.4664C43.6809 7.56701 39.4087 6.57892 35.0792 6.57715ZM35.0792 59.1959C30.8395 59.1988 26.6741 58.0823 23.0042 55.9593C22.7356 55.8035 22.4368 55.7065 22.1278 55.6749C21.8188 55.6432 21.5066 55.6776 21.2119 55.7757L10.9622 59.1959L14.3797 48.9462C14.4782 48.6517 14.513 48.3396 14.4819 48.0306C14.4507 47.7216 14.3542 47.4228 14.1988 47.1539C11.5404 42.5577 10.4731 37.2127 11.1624 31.9481C11.8517 26.6834 14.2591 21.7933 18.0112 18.0365C21.7633 14.2797 26.6503 11.8661 31.9141 11.1701C37.1779 10.4742 42.5242 11.5348 47.1237 14.1874C51.7232 16.84 55.3188 20.9363 57.3527 25.841C59.3865 30.7456 59.745 36.1843 58.3724 41.3134C56.9998 46.4426 53.9729 50.9754 49.7613 54.2087C45.5497 57.442 40.3888 59.195 35.0792 59.1959Z" fill="#05482C"/>
</svg>
